<?xml version="1.0" encoding="iso-8859-1"?>
<!-- Generator: Adobe Illustrator 19.1.1, SVG Export Plug-In . SVG Version: 6.00 Build 0)  -->
<svg version="1.1"  xmlns="http://www.w3.org/2000/svg" xmlns:xlink="http://www.w3.org/1999/xlink" x="0px" y="0px"
	 viewBox="0 0 48 48" style="enable-background:new 0 0 48 48;" xml:space="preserve">
<path style="fill:#FFA726;" d="M15,29.5c0,1.933-1.567,3.5-3.5,3.5C9.567,33,8,31.433,8,29.5S9.567,26,11.5,26
	C13.433,26,15,27.567,15,29.5 M40,29.499C40,27.566,38.433,26,36.5,26c-1.933,0-3.5,1.566-3.5,3.499C33,31.433,34.567,33,36.5,33
	C38.433,33,40,31.433,40,29.499"/>
<path style="fill:#FFB74D;" d="M11,22.778c0-11.31,26-7.364,26,0v8.888C37,39.031,31.18,45,24,45s-13-5.969-13-13.333V22.778z"/>
<path style="fill:#424242;" d="M38.903,19.522C38.485,14.214,36.468,11.317,30,10l-1-2h-5C15.857,8,9,11.649,9,21v6.022L12,30v-5
	l18-6l6,5v6l3-2.978V21c0-0.502,0.059,0.484,0,0"/>
<path style="fill:#784719;" d="M31,29.5c0,0.829-0.67,1.5-1.5,1.5c-0.829,0-1.5-0.671-1.5-1.5c0-0.83,0.671-1.5,1.5-1.5
	C30.33,28,31,28.67,31,29.5 M20,29.5c0-0.83-0.671-1.5-1.5-1.5c-0.83,0-1.5,0.671-1.5,1.5s0.67,1.5,1.5,1.5
	C19.329,31,20,30.33,20,29.5"/>
<path style="fill:#E64A19;" d="M23.971,16.833C19.252,16.833,10.875,19.67,9,21c0.505,1.776,1.062,2.906,2,5
	c0.822,1.374,0.883,2,1.927,2l0,0c0.709,0,1.441-0.277,2.367-0.632C16.863,26.77,20.536,26,23.999,26
	c3.459,0,7.102,0.77,8.648,1.367C33.564,27.721,34.288,28,35,28c1.038,0,1.128-0.639,2-2c0.75-1.656,1.449-3.097,2-5
	C37.542,19.701,28.735,16.833,23.971,16.833z"/>
<path style="fill:#FF754C;" d="M39,21v-3.524C39,9.652,31.83,4,24.006,4l0,0C16.182,4,9,9.652,9,17.476v3.611
	c0,0,5.833-3.087,15-3.087S39,21,39,21z"/>
<path style="fill:#FFFFFF;" d="M15,19c2.453-0.649,5.288-1,9-1c3.67,0,6.559,0.36,9,1c0.072-2.115-0.75-12-8.994-15.087
	C15.5,7.667,15,16.635,15,19z"/>
<ellipse style="fill:#E64A19;" cx="24" cy="4" rx="2" ry="1"/>
<path style="fill:#FFC107;" d="M23.136,13.664c0.185,0.525,0.419,0.856,1.099,0.856c0.531,0,0.826-0.183,1.135-0.57
	c0.247-0.319,0.494-0.434,0.802-0.434c0.458,0,0.828,0.308,0.828,0.753c0,0.183-0.062,0.342-0.16,0.5
	C26.419,15.465,25.494,16,24.235,16c-1.47,0-2.556-0.638-3.001-1.903C21.062,13.584,21,13.184,21,12
	c0-1.184,0.062-1.584,0.234-2.097C21.679,8.639,22.765,8,24.235,8c1.259,0,2.184,0.534,2.604,1.231C26.938,9.391,27,9.55,27,9.731
	c0,0.444-0.37,0.753-0.828,0.753c-0.308,0-0.555-0.116-0.802-0.434c-0.309-0.388-0.604-0.569-1.135-0.569
	c-0.68,0-0.914,0.33-1.099,0.856C23.038,10.62,23,10.894,23,12C23,13.105,23.038,13.38,23.136,13.664z"/>
</svg>
